<?xml version="1.0" encoding="utf-8"?>
<!-- Generator: Adobe Illustrator 23.0.3, SVG Export Plug-In . SVG Version: 6.00 Build 0)  -->
<svg version="1.1" xmlns="http://www.w3.org/2000/svg" xmlns:xlink="http://www.w3.org/1999/xlink" x="0px" y="0px"
	 viewBox="0 0 29.1 27.83" style="enable-background:new 0 0 29.1 27.83;" xml:space="preserve">
<style type="text/css">
	.st0{fill:#FFFFFF;}
	.st1{fill:url(#SVGID_1_);}
</style>
<g id="Background">
</g>
<g id="Objects">
	<g>
		<path class="st0" d="M14.94,1.42c-6.9,0-12.5,5.6-12.5,12.5c0,2.33,0.05,3.39,1.15,5.25l-1.15,7.25l6.81-1.37
			c1.82,1.03,3.45,1.37,5.69,1.37c6.9,0,12.5-5.6,12.5-12.5S21.84,1.42,14.94,1.42z"/>
		<linearGradient id="SVGID_1_" gradientUnits="userSpaceOnUse" x1="18.7518" y1="4.4194" x2="10.0449" y2="26.1216">
			<stop  offset="0" style="stop-color:#4BC25A"/>
			<stop  offset="1" style="stop-color:#368C41"/>
		</linearGradient>
		<path class="st1" d="M14.94,4.02c-5.47,0-9.9,4.43-9.9,9.9c0,1.84,0.5,3.56,1.38,5.04l-0.75,4.22l4.4-0.64
			c1.44,0.81,3.1,1.28,4.87,1.28c5.47,0,9.9-4.43,9.9-9.9S20.41,4.02,14.94,4.02z"/>
		<path class="st0" d="M9.4,18.42c-0.17-0.4-0.25-0.78-0.25-1.14c0-0.08,0.01-0.14,0.02-0.18c0.02-0.06,0.17-0.17,0.44-0.33
			c0.27-0.16,0.6-0.35,1-0.56l0.6-0.33c0.04-0.02,0.11-0.07,0.21-0.15c0.11-0.08,0.2-0.13,0.28-0.17c0.08-0.04,0.16-0.06,0.24-0.06
			c0.14,0,0.31,0.12,0.53,0.37c0.22,0.24,0.43,0.49,0.64,0.74c0.21,0.25,0.38,0.37,0.5,0.37c0.05,0,0.12-0.01,0.19-0.04
			c0.07-0.03,0.13-0.05,0.18-0.07c0.04-0.02,0.11-0.06,0.19-0.11c0.08-0.05,0.14-0.08,0.16-0.1c0.75-0.42,1.39-0.89,1.93-1.43
			c0.54-0.54,1.02-1.18,1.43-1.93c0.01-0.02,0.05-0.08,0.1-0.16c0.05-0.08,0.08-0.15,0.11-0.19c0.02-0.04,0.05-0.1,0.07-0.17
			c0.03-0.07,0.04-0.13,0.04-0.19c0-0.1-0.08-0.22-0.23-0.38c-0.15-0.15-0.32-0.3-0.51-0.44c-0.18-0.14-0.35-0.28-0.51-0.45
			c-0.15-0.16-0.23-0.3-0.23-0.41c0-0.08,0.02-0.15,0.06-0.24c0.04-0.08,0.09-0.18,0.17-0.28c0.08-0.11,0.12-0.18,0.15-0.22
			c0.02-0.04,0.08-0.15,0.17-0.32c0.09-0.17,0.19-0.34,0.28-0.51c0.1-0.17,0.2-0.35,0.3-0.54c0.1-0.19,0.2-0.34,0.28-0.46
			c0.09-0.12,0.15-0.19,0.19-0.2c0.04-0.01,0.1-0.02,0.18-0.02c0.36,0,0.74,0.08,1.14,0.25c0.35,0.16,0.65,0.51,0.91,1.07
			c0.26,0.55,0.39,1.05,0.39,1.48c0,0.12-0.01,0.25-0.03,0.38c-0.02,0.14-0.04,0.25-0.06,0.35c-0.02,0.09-0.05,0.22-0.1,0.37
			c-0.05,0.15-0.09,0.27-0.11,0.33c-0.03,0.07-0.07,0.19-0.14,0.37c-0.07,0.18-0.11,0.29-0.12,0.34c-0.45,1.24-1.27,2.45-2.45,3.63
			c-1.18,1.18-2.39,2-3.63,2.45c-0.04,0.01-0.16,0.06-0.34,0.12c-0.18,0.07-0.31,0.11-0.37,0.14c-0.07,0.03-0.18,0.06-0.33,0.11
			c-0.15,0.05-0.28,0.08-0.37,0.1c-0.09,0.02-0.21,0.04-0.34,0.06c-0.14,0.02-0.26,0.03-0.39,0.03c-0.43,0-0.92-0.13-1.48-0.39
			C9.91,19.07,9.56,18.77,9.4,18.42L9.4,18.42z"/>
	</g>
</g>
</svg>
