<?xml version="1.0" encoding="utf-8"?>
<!-- Generator: Adobe Illustrator 23.0.3, SVG Export Plug-In . SVG Version: 6.00 Build 0)  -->
<svg version="1.1" xmlns="http://www.w3.org/2000/svg" xmlns:xlink="http://www.w3.org/1999/xlink" x="0px" y="0px"
	 viewBox="0 0 429.45 436.79" style="enable-background:new 0 0 429.45 436.79;" xml:space="preserve">
<style type="text/css">
	.st0{fill:#FFFFFF;}
	.st1{fill:url(#SVGID_1_);}
</style>
<g id="Background">
</g>
<g id="Objects">
	<g>
		<path class="st0" d="M224.06,27.21c-103.85,0-188.03,84.18-188.03,188.03c0,34.98,0.74,50.95,17.37,79L36.03,403.27l102.49-20.55
			c27.32,15.47,51.9,20.55,85.54,20.55c103.85,0,188.03-84.18,188.03-188.03S327.91,27.21,224.06,27.21z"/>
		<linearGradient id="SVGID_1_" gradientUnits="userSpaceOnUse" x1="281.3907" y1="72.3501" x2="150.4185" y2="398.8006">
			<stop  offset="0" style="stop-color:#4BC25A"/>
			<stop  offset="1" style="stop-color:#368C41"/>
		</linearGradient>
		<path class="st1" d="M224.06,66.39c-82.21,0-148.86,66.65-148.86,148.86c0,27.69,7.57,53.61,20.74,75.81l-11.28,63.46l66.15-9.66
			c21.63,12.25,46.62,19.25,73.25,19.25c82.21,0,148.86-66.65,148.86-148.86S306.27,66.39,224.06,66.39z"/>
		<path class="st0" d="M140.67,282.97c-2.5-6-3.75-11.73-3.75-17.18c0-1.25,0.11-2.15,0.34-2.72c0.34-0.91,2.53-2.57,6.55-5.02
			c4.04-2.44,9.06-5.24,15.07-8.43l9.02-4.92c0.57-0.35,1.65-1.08,3.23-2.21c1.59-1.14,3.01-1.99,4.25-2.56
			c1.25-0.56,2.45-0.85,3.58-0.85c2.05,0,4.71,1.85,8,5.53c3.3,3.68,6.53,7.41,9.7,11.15c3.18,3.74,5.68,5.62,7.49,5.62
			c0.81,0,1.74-0.2,2.82-0.6c1.08-0.4,1.96-0.76,2.64-1.1c0.67-0.35,1.64-0.88,2.89-1.61c1.25-0.74,2.05-1.22,2.39-1.45
			c11.24-6.24,20.91-13.42,29.02-21.53c8.12-8.12,15.29-17.79,21.53-29.02c0.22-0.35,0.72-1.13,1.45-2.39
			c0.73-1.25,1.27-2.21,1.61-2.9c0.35-0.67,0.72-1.55,1.11-2.63c0.4-1.08,0.59-2.02,0.59-2.81c0-1.47-1.16-3.38-3.49-5.7
			c-2.33-2.32-4.88-4.51-7.66-6.55c-2.78-2.04-5.32-4.28-7.66-6.72c-2.32-2.44-3.49-4.51-3.49-6.21c0-1.14,0.29-2.33,0.86-3.58
			c0.56-1.25,1.42-2.66,2.55-4.25c1.13-1.59,1.88-2.66,2.21-3.24c0.34-0.67,1.19-2.29,2.55-4.84c1.37-2.56,2.79-5.14,4.25-7.74
			c1.48-2.61,2.98-5.3,4.52-8.09c1.53-2.79,2.95-5.08,4.25-6.9c1.31-1.81,2.23-2.84,2.8-3.06c0.57-0.22,1.48-0.35,2.72-0.35
			c5.45,0,11.18,1.26,17.19,3.75c5.22,2.38,9.76,7.74,13.62,16.07c3.85,8.34,5.79,15.75,5.79,22.22c0,1.81-0.14,3.74-0.43,5.78
			c-0.28,2.04-0.57,3.77-0.85,5.19c-0.28,1.42-0.8,3.28-1.54,5.62c-0.73,2.33-1.31,4-1.69,5.02c-0.4,1.02-1.11,2.89-2.13,5.61
			c-1.02,2.72-1.64,4.43-1.86,5.11c-6.82,18.6-19.1,36.78-36.85,54.55c-17.76,17.75-35.94,30.03-54.55,36.84
			c-0.67,0.22-2.38,0.85-5.1,1.87c-2.72,1.01-4.6,1.72-5.62,2.12c-1.02,0.4-2.69,0.96-5.02,1.7c-2.32,0.73-4.2,1.25-5.62,1.53
			c-1.42,0.28-3.14,0.56-5.18,0.85c-2.04,0.29-3.98,0.43-5.79,0.43c-6.47,0-13.87-1.93-22.21-5.79
			C148.42,292.73,143.06,288.19,140.67,282.97L140.67,282.97z"/>
	</g>
</g>
</svg>
